<mxfile host="app.diagrams.net" agent="Mozilla/5.0 (Windows NT 10.0; Win64; x64) AppleWebKit/537.36 (KHTML, like Gecko) Chrome/138.0.0.0 Safari/537.36 Edg/138.0.0.0" version="28.0.6">
  <diagram name="RetinoFusionNet Architecture" id="ZaIA_t4OzmAZ1vT0Y2EV">
    <mxGraphModel dx="1420" dy="846" grid="1" gridSize="10" guides="1" tooltips="1" connect="1" arrows="1" fold="1" page="1" pageScale="1" pageWidth="850" pageHeight="1100" math="0" shadow="0">
      <root>
        <mxCell id="0" />
        <mxCell id="1" parent="0" />
        <mxCell id="P4FH_KhMqfVyUqz4qaMQ-2" value="Input&lt;br&gt;Fundus Image&lt;br&gt;H×W×3" style="rounded=1;whiteSpace=wrap;html=1;fillColor=#e0f2fe;strokeColor=#0277bd;fontStyle=1;fontSize=11;" vertex="1" parent="1">
          <mxGeometry x="50" y="80" width="120" height="60" as="geometry" />
        </mxCell>
        <mxCell id="P4FH_KhMqfVyUqz4qaMQ-3" value="Preprocessing&lt;br&gt;Normalize &amp; Resize" style="rounded=1;whiteSpace=wrap;html=1;fillColor=#f3e5f5;strokeColor=#7b1fa2;fontStyle=1;fontSize=10;" vertex="1" parent="1">
          <mxGeometry x="220" y="90" width="100" height="40" as="geometry" />
        </mxCell>
        <mxCell id="P4FH_KhMqfVyUqz4qaMQ-4" value="Multi-Scale Patch&lt;br&gt;Embedding&lt;br&gt;&lt;br&gt;16×16  8×8  4×4&lt;br&gt;&lt;br&gt;N×D Tokens" style="rounded=1;whiteSpace=wrap;html=1;fillColor=#f3e5f5;strokeColor=#7b1fa2;fontStyle=1;fontSize=11;" vertex="1" parent="1">
          <mxGeometry x="370" y="70" width="140" height="80" as="geometry" />
        </mxCell>
        <mxCell id="P4FH_KhMqfVyUqz4qaMQ-5" value="Cross-Scale Vision&lt;br&gt;Transformer&lt;br&gt;L=12 layers&lt;br&gt;Multi-Head Attention" style="rounded=1;whiteSpace=wrap;html=1;fillColor=#f3e5f5;strokeColor=#7b1fa2;fontStyle=1;fontSize=11;" vertex="1" parent="1">
          <mxGeometry x="560" y="70" width="140" height="80" as="geometry" />
        </mxCell>
        <mxCell id="P4FH_KhMqfVyUqz4qaMQ-6" value="Prototype Memory&lt;br&gt;Bank&lt;br&gt;&lt;br&gt;G₀ G₁ G₂ G₃ G₄&lt;br&gt;&lt;br&gt;K×D prototypes" style="shape=cylinder3;whiteSpace=wrap;html=1;boundedLbl=1;backgroundOutline=1;size=15;fillColor=#fff3e0;strokeColor=#f57c00;fontStyle=1;fontSize=10;" vertex="1" parent="1">
          <mxGeometry x="720" y="70" width="120" height="80" as="geometry" />
        </mxCell>
        <mxCell id="P4FH_KhMqfVyUqz4qaMQ-7" value="Cosine Similarity&lt;br&gt;Feature × Prototype" style="rounded=1;whiteSpace=wrap;html=1;fillColor=#f3e5f5;strokeColor=#7b1fa2;fontStyle=1;fontSize=10;" vertex="1" parent="1">
          <mxGeometry x="720" y="190" width="120" height="40" as="geometry" />
        </mxCell>
        <mxCell id="P4FH_KhMqfVyUqz4qaMQ-8" value="Classification&lt;br&gt;Logic" style="rhombus;whiteSpace=wrap;html=1;fillColor=#f3e5f5;strokeColor=#7b1fa2;fontStyle=1;fontSize=9;" vertex="1" parent="1">
          <mxGeometry x="930" y="90" width="80" height="40" as="geometry" />
        </mxCell>
        <mxCell id="P4FH_KhMqfVyUqz4qaMQ-9" value="DR Grade ŷ" style="rounded=1;whiteSpace=wrap;html=1;fillColor=#e8f5e8;strokeColor=#388e3c;fontStyle=1;fontSize=10;" vertex="1" parent="1">
          <mxGeometry x="1050" y="70" width="100" height="30" as="geometry" />
        </mxCell>
        <mxCell id="P4FH_KhMqfVyUqz4qaMQ-10" value="Evidence Map" style="rounded=1;whiteSpace=wrap;html=1;fillColor=#e8f5e8;strokeColor=#388e3c;fontStyle=1;fontSize=10;" vertex="1" parent="1">
          <mxGeometry x="1050" y="110" width="100" height="30" as="geometry" />
        </mxCell>
        <mxCell id="P4FH_KhMqfVyUqz4qaMQ-11" value="Confidence" style="rounded=1;whiteSpace=wrap;html=1;fillColor=#e8f5e8;strokeColor=#388e3c;fontStyle=1;fontSize=10;" vertex="1" parent="1">
          <mxGeometry x="1050" y="150" width="100" height="30" as="geometry" />
        </mxCell>
        <mxCell id="P4FH_KhMqfVyUqz4qaMQ-12" value="Distributed Training Subsystem" style="rounded=1;whiteSpace=wrap;html=1;fillColor=none;strokeColor=#424242;strokeWidth=2;dashed=1;verticalAlign=top;fontStyle=1;fontSize=14;" vertex="1" parent="1">
          <mxGeometry x="200" y="300" width="800" height="180" as="geometry" />
        </mxCell>
        <mxCell id="P4FH_KhMqfVyUqz4qaMQ-13" value="Federated Learning&lt;br&gt;Controller&lt;br&gt;Parameter Aggregation" style="rounded=1;whiteSpace=wrap;html=1;fillColor=#f3e5f5;strokeColor=#7b1fa2;fontStyle=1;fontSize=11;" vertex="1" parent="1">
          <mxGeometry x="220" y="340" width="160" height="60" as="geometry" />
        </mxCell>
        <mxCell id="P4FH_KhMqfVyUqz4qaMQ-14" value="GPU Cluster&lt;br&gt;Node 1" style="rounded=1;whiteSpace=wrap;html=1;fillColor=#e3f2fd;strokeColor=#1976d2;fontStyle=1;fontSize=10;" vertex="1" parent="1">
          <mxGeometry x="420" y="340" width="80" height="50" as="geometry" />
        </mxCell>
        <mxCell id="P4FH_KhMqfVyUqz4qaMQ-15" value="GPU Cluster&lt;br&gt;Node 2" style="rounded=1;whiteSpace=wrap;html=1;fillColor=#e3f2fd;strokeColor=#1976d2;fontStyle=1;fontSize=10;" vertex="1" parent="1">
          <mxGeometry x="520" y="340" width="80" height="50" as="geometry" />
        </mxCell>
        <mxCell id="P4FH_KhMqfVyUqz4qaMQ-16" value="GPU Cluster&lt;br&gt;Node N" style="rounded=1;whiteSpace=wrap;html=1;fillColor=#e3f2fd;strokeColor=#1976d2;fontStyle=1;fontSize=10;" vertex="1" parent="1">
          <mxGeometry x="620" y="340" width="80" height="50" as="geometry" />
        </mxCell>
        <mxCell id="P4FH_KhMqfVyUqz4qaMQ-17" value="ℒ_cls&lt;br&gt;Classification" style="rounded=1;whiteSpace=wrap;html=1;fillColor=#ffebee;strokeColor=#d32f2f;fontStyle=1;fontSize=9;" vertex="1" parent="1">
          <mxGeometry x="750" y="340" width="80" height="35" as="geometry" />
        </mxCell>
        <mxCell id="P4FH_KhMqfVyUqz4qaMQ-18" value="ℒ_proto&lt;br&gt;Prototype" style="rounded=1;whiteSpace=wrap;html=1;fillColor=#ffebee;strokeColor=#d32f2f;fontStyle=1;fontSize=9;" vertex="1" parent="1">
          <mxGeometry x="750" y="385" width="80" height="35" as="geometry" />
        </mxCell>
        <mxCell id="P4FH_KhMqfVyUqz4qaMQ-19" value="ℒ_total&lt;br&gt;Combined Loss" style="rounded=1;whiteSpace=wrap;html=1;fillColor=#ffebee;strokeColor=#d32f2f;fontStyle=1;fontSize=9;" vertex="1" parent="1">
          <mxGeometry x="850" y="362" width="80" height="35" as="geometry" />
        </mxCell>
        <mxCell id="P4FH_KhMqfVyUqz4qaMQ-22" style="edgeStyle=orthogonalEdgeStyle;rounded=0;orthogonalLoop=1;jettySize=auto;html=1;strokeWidth=2;endArrow=classic;" edge="1" parent="1" source="P4FH_KhMqfVyUqz4qaMQ-2" target="P4FH_KhMqfVyUqz4qaMQ-3">
          <mxGeometry relative="1" as="geometry" />
        </mxCell>
        <mxCell id="P4FH_KhMqfVyUqz4qaMQ-23" style="edgeStyle=orthogonalEdgeStyle;rounded=0;orthogonalLoop=1;jettySize=auto;html=1;strokeWidth=2;endArrow=classic;" edge="1" parent="1" source="P4FH_KhMqfVyUqz4qaMQ-3" target="P4FH_KhMqfVyUqz4qaMQ-4">
          <mxGeometry relative="1" as="geometry" />
        </mxCell>
        <mxCell id="P4FH_KhMqfVyUqz4qaMQ-24" style="edgeStyle=orthogonalEdgeStyle;rounded=0;orthogonalLoop=1;jettySize=auto;html=1;strokeWidth=2;endArrow=classic;" edge="1" parent="1" source="P4FH_KhMqfVyUqz4qaMQ-4" target="P4FH_KhMqfVyUqz4qaMQ-5">
          <mxGeometry relative="1" as="geometry" />
        </mxCell>
        <mxCell id="P4FH_KhMqfVyUqz4qaMQ-25" style="edgeStyle=orthogonalEdgeStyle;rounded=0;orthogonalLoop=1;jettySize=auto;html=1;strokeWidth=2;endArrow=classic;" edge="1" parent="1" source="P4FH_KhMqfVyUqz4qaMQ-5" target="P4FH_KhMqfVyUqz4qaMQ-6">
          <mxGeometry relative="1" as="geometry" />
        </mxCell>
        <mxCell id="P4FH_KhMqfVyUqz4qaMQ-26" style="edgeStyle=orthogonalEdgeStyle;rounded=0;orthogonalLoop=1;jettySize=auto;html=1;strokeWidth=2;endArrow=classic;" edge="1" parent="1" source="P4FH_KhMqfVyUqz4qaMQ-6" target="P4FH_KhMqfVyUqz4qaMQ-8">
          <mxGeometry relative="1" as="geometry">
            <mxPoint x="970" y="110" as="targetPoint" />
          </mxGeometry>
        </mxCell>
        <mxCell id="P4FH_KhMqfVyUqz4qaMQ-27" style="edgeStyle=orthogonalEdgeStyle;rounded=0;orthogonalLoop=1;jettySize=auto;html=1;strokeWidth=2;endArrow=classic;" edge="1" parent="1" source="P4FH_KhMqfVyUqz4qaMQ-8" target="P4FH_KhMqfVyUqz4qaMQ-9">
          <mxGeometry relative="1" as="geometry" />
        </mxCell>
        <mxCell id="P4FH_KhMqfVyUqz4qaMQ-28" style="edgeStyle=orthogonalEdgeStyle;rounded=0;orthogonalLoop=1;jettySize=auto;html=1;strokeWidth=2;endArrow=classic;" edge="1" parent="1" source="P4FH_KhMqfVyUqz4qaMQ-8" target="P4FH_KhMqfVyUqz4qaMQ-10">
          <mxGeometry relative="1" as="geometry" />
        </mxCell>
        <mxCell id="P4FH_KhMqfVyUqz4qaMQ-29" style="edgeStyle=orthogonalEdgeStyle;rounded=0;orthogonalLoop=1;jettySize=auto;html=1;strokeWidth=2;endArrow=classic;" edge="1" parent="1" source="P4FH_KhMqfVyUqz4qaMQ-8" target="P4FH_KhMqfVyUqz4qaMQ-11">
          <mxGeometry relative="1" as="geometry" />
        </mxCell>
        <mxCell id="P4FH_KhMqfVyUqz4qaMQ-30" style="edgeStyle=orthogonalEdgeStyle;rounded=0;orthogonalLoop=1;jettySize=auto;html=1;strokeWidth=2;endArrow=classic;strokeColor=#2563eb;" edge="1" parent="1" source="P4FH_KhMqfVyUqz4qaMQ-5" target="P4FH_KhMqfVyUqz4qaMQ-7">
          <mxGeometry relative="1" as="geometry">
            <Array as="points">
              <mxPoint x="630" y="180" />
              <mxPoint x="720" y="180" />
            </Array>
          </mxGeometry>
        </mxCell>
        <mxCell id="P4FH_KhMqfVyUqz4qaMQ-31" style="edgeStyle=orthogonalEdgeStyle;rounded=0;orthogonalLoop=1;jettySize=auto;html=1;strokeWidth=2;endArrow=classic;strokeColor=#2563eb;" edge="1" parent="1" source="P4FH_KhMqfVyUqz4qaMQ-6" target="P4FH_KhMqfVyUqz4qaMQ-7">
          <mxGeometry relative="1" as="geometry" />
        </mxCell>
        <mxCell id="P4FH_KhMqfVyUqz4qaMQ-32" style="edgeStyle=orthogonalEdgeStyle;rounded=0;orthogonalLoop=1;jettySize=auto;html=1;strokeWidth=2;endArrow=classic;strokeColor=#2563eb;" edge="1" parent="1" source="P4FH_KhMqfVyUqz4qaMQ-7" target="P4FH_KhMqfVyUqz4qaMQ-8">
          <mxGeometry relative="1" as="geometry">
            <Array as="points">
              <mxPoint x="780" y="250" />
              <mxPoint x="970" y="250" />
            </Array>
          </mxGeometry>
        </mxCell>
        <mxCell id="P4FH_KhMqfVyUqz4qaMQ-33" style="edgeStyle=orthogonalEdgeStyle;rounded=0;orthogonalLoop=1;jettySize=auto;html=1;strokeWidth=2;endArrow=classic;strokeColor=#dc2626;" edge="1" parent="1" source="P4FH_KhMqfVyUqz4qaMQ-5" target="P4FH_KhMqfVyUqz4qaMQ-13">
          <mxGeometry relative="1" as="geometry">
            <Array as="points">
              <mxPoint x="630" y="280" />
              <mxPoint x="300" y="280" />
            </Array>
          </mxGeometry>
        </mxCell>
        <mxCell id="P4FH_KhMqfVyUqz4qaMQ-34" style="edgeStyle=orthogonalEdgeStyle;rounded=0;orthogonalLoop=1;jettySize=auto;html=1;strokeWidth=1.5;endArrow=classic;" edge="1" parent="1" source="P4FH_KhMqfVyUqz4qaMQ-13" target="P4FH_KhMqfVyUqz4qaMQ-14">
          <mxGeometry relative="1" as="geometry" />
        </mxCell>
        <mxCell id="P4FH_KhMqfVyUqz4qaMQ-35" style="edgeStyle=orthogonalEdgeStyle;rounded=0;orthogonalLoop=1;jettySize=auto;html=1;strokeWidth=1.5;endArrow=classic;" edge="1" parent="1" source="P4FH_KhMqfVyUqz4qaMQ-14" target="P4FH_KhMqfVyUqz4qaMQ-15">
          <mxGeometry relative="1" as="geometry" />
        </mxCell>
        <mxCell id="P4FH_KhMqfVyUqz4qaMQ-36" style="edgeStyle=orthogonalEdgeStyle;rounded=0;orthogonalLoop=1;jettySize=auto;html=1;strokeWidth=1.5;endArrow=classic;" edge="1" parent="1" source="P4FH_KhMqfVyUqz4qaMQ-15" target="P4FH_KhMqfVyUqz4qaMQ-16">
          <mxGeometry relative="1" as="geometry" />
        </mxCell>
        <mxCell id="P4FH_KhMqfVyUqz4qaMQ-37" style="edgeStyle=orthogonalEdgeStyle;rounded=0;orthogonalLoop=1;jettySize=auto;html=1;strokeWidth=1.5;endArrow=classic;" edge="1" parent="1" source="P4FH_KhMqfVyUqz4qaMQ-16" target="P4FH_KhMqfVyUqz4qaMQ-17">
          <mxGeometry relative="1" as="geometry" />
        </mxCell>
        <mxCell id="P4FH_KhMqfVyUqz4qaMQ-38" style="edgeStyle=orthogonalEdgeStyle;rounded=0;orthogonalLoop=1;jettySize=auto;html=1;strokeWidth=1.5;endArrow=classic;" edge="1" parent="1" source="P4FH_KhMqfVyUqz4qaMQ-16" target="P4FH_KhMqfVyUqz4qaMQ-18">
          <mxGeometry relative="1" as="geometry" />
        </mxCell>
        <mxCell id="P4FH_KhMqfVyUqz4qaMQ-39" style="edgeStyle=orthogonalEdgeStyle;rounded=0;orthogonalLoop=1;jettySize=auto;html=1;strokeWidth=1.5;endArrow=classic;" edge="1" parent="1" source="P4FH_KhMqfVyUqz4qaMQ-17" target="P4FH_KhMqfVyUqz4qaMQ-19">
          <mxGeometry relative="1" as="geometry" />
        </mxCell>
        <mxCell id="P4FH_KhMqfVyUqz4qaMQ-40" style="edgeStyle=orthogonalEdgeStyle;rounded=0;orthogonalLoop=1;jettySize=auto;html=1;strokeWidth=1.5;endArrow=classic;" edge="1" parent="1" source="P4FH_KhMqfVyUqz4qaMQ-18" target="P4FH_KhMqfVyUqz4qaMQ-19">
          <mxGeometry relative="1" as="geometry" />
        </mxCell>
        <mxCell id="P4FH_KhMqfVyUqz4qaMQ-41" value="Raw" style="text;html=1;strokeColor=none;fillColor=none;align=center;verticalAlign=middle;whiteSpace=wrap;rounded=0;fontSize=9;color=#666666;" vertex="1" parent="1">
          <mxGeometry x="185" y="90" width="20" height="20" as="geometry" />
        </mxCell>
        <mxCell id="P4FH_KhMqfVyUqz4qaMQ-42" value="Preprocessed" style="text;html=1;strokeColor=none;fillColor=none;align=center;verticalAlign=middle;whiteSpace=wrap;rounded=0;fontSize=9;color=#666666;" vertex="1" parent="1">
          <mxGeometry x="325" y="90" width="40" height="20" as="geometry" />
        </mxCell>
        <mxCell id="P4FH_KhMqfVyUqz4qaMQ-43" value="Tokens" style="text;html=1;strokeColor=none;fillColor=none;align=center;verticalAlign=middle;whiteSpace=wrap;rounded=0;fontSize=9;color=#666666;" vertex="1" parent="1">
          <mxGeometry x="525" y="90" width="30" height="20" as="geometry" />
        </mxCell>
        <mxCell id="P4FH_KhMqfVyUqz4qaMQ-44" value="Features" style="text;html=1;strokeColor=none;fillColor=none;align=center;verticalAlign=middle;whiteSpace=wrap;rounded=0;fontSize=9;color=#666666;" vertex="1" parent="1">
          <mxGeometry x="705" y="90" width="30" height="20" as="geometry" />
        </mxCell>
        <mxCell id="P4FH_KhMqfVyUqz4qaMQ-45" value="Logits" style="text;html=1;strokeColor=none;fillColor=none;align=center;verticalAlign=middle;whiteSpace=wrap;rounded=0;fontSize=9;color=#666666;" vertex="1" parent="1">
          <mxGeometry x="875" y="90" width="30" height="20" as="geometry" />
        </mxCell>
        <mxCell id="P4FH_KhMqfVyUqz4qaMQ-46" value="Feature Vector" style="text;html=1;strokeColor=none;fillColor=none;align=center;verticalAlign=middle;whiteSpace=wrap;rounded=0;fontSize=9;color=#2563eb;" vertex="1" parent="1">
          <mxGeometry x="620" y="160" width="60" height="20" as="geometry" />
        </mxCell>
        <mxCell id="P4FH_KhMqfVyUqz4qaMQ-47" value="Prototype Query" style="text;html=1;strokeColor=none;fillColor=none;align=center;verticalAlign=middle;whiteSpace=wrap;rounded=0;fontSize=9;color=#2563eb;" vertex="1" parent="1">
          <mxGeometry x="760" y="165" width="60" height="20" as="geometry" />
        </mxCell>
        <mxCell id="P4FH_KhMqfVyUqz4qaMQ-48" value="Similarity Scores" style="text;html=1;strokeColor=none;fillColor=none;align=center;verticalAlign=middle;whiteSpace=wrap;rounded=0;fontSize=9;color=#2563eb;" vertex="1" parent="1">
          <mxGeometry x="845" y="260" width="60" height="20" as="geometry" />
        </mxCell>
        <mxCell id="P4FH_KhMqfVyUqz4qaMQ-49" value="Model Updates" style="text;html=1;strokeColor=none;fillColor=none;align=center;verticalAlign=middle;whiteSpace=wrap;rounded=0;fontSize=9;color=#dc2626;" vertex="1" parent="1">
          <mxGeometry x="435" y="260" width="60" height="20" as="geometry" />
        </mxCell>
      </root>
    </mxGraphModel>
  </diagram>
</mxfile>
